<?xml version="1.0" standalone="no"?>
<!DOCTYPE svg PUBLIC "-//W3C//DTD SVG 20010904//EN"
 "http://www.w3.org/TR/2001/REC-SVG-20010904/DTD/svg10.dtd">
<svg version="1.0" xmlns="http://www.w3.org/2000/svg"
 width="2845.000000pt" height="2845.000000pt" viewBox="0 0 2845.000000 2845.000000"
 preserveAspectRatio="xMidYMid meet">
<metadata>
Created by potrace 1.11, written by Peter Selinger 2001-2013
</metadata>
<g transform="translate(0.000000,2845.000000) scale(0.100000,-0.100000)"
fill="#000000" stroke="none">
<path d="M1520 28440 c-136 -19 -159 -23 -272 -54 -403 -111 -750 -360 -982
-706 -113 -169 -194 -346 -241 -525 l-25 -97 0 -12872 1 -12871 25 -90 c122
-429 373 -770 751 -1019 88 -57 270 -144 377 -180 l78 -26 12988 0 12988 0 67
21 c290 89 594 295 804 544 160 190 303 479 355 715 15 69 16 1030 14 12945
l-3 12870 -28 84 c-59 185 -104 285 -190 428 -98 164 -261 351 -392 451 -33
25 -62 49 -65 53 -14 17 -186 120 -270 160 -175 85 -313 128 -504 159 -119 18
-346 19 -12771 18 -6957 0 -12675 -4 -12705 -8z"/>
</g>
</svg>
